<?xml version="1.0" encoding="UTF-8"?>
<!DOCTYPE svg PUBLIC "-//W3C//DTD SVG 1.1//EN" "http://www.w3.org/Graphics/SVG/1.1/DTD/svg11.dtd">
<svg version="1.1" xmlns="http://www.w3.org/2000/svg" xmlns:xlink="http://www.w3.org/1999/xlink" x="0" y="0" width="352" height="512" viewBox="0, 0, 352, 512">
  <g id="Layer_7" transform="translate(-240.822, -157.996)">
    <path d="M417.101,157.996 C355.343,157.996 305.101,208.238 305.101,269.996 L305.101,381.996 L272.822,381.996 C255.15,381.996 240.822,396.324 240.822,413.996 L240.822,637.996 C240.822,655.668 255.15,669.996 272.822,669.996 L560.822,669.996 C578.494,669.996 592.822,655.668 592.822,637.996 L592.822,413.996 C592.822,396.324 578.494,381.996 560.822,381.996 L369.101,381.996 L369.101,269.996 C369.101,243.527 390.632,221.996 417.101,221.996 C443.57,221.996 465.101,243.527 465.101,269.996 L465.101,383.726 C465.101,401.398 479.429,415.726 497.101,415.726 C514.773,415.726 529.101,401.398 529.101,383.726 L529.101,269.996 C529.101,208.238 478.859,157.996 417.101,157.996 z M432.822,555.059 L432.822,589.996 C432.822,598.832 425.658,605.996 416.822,605.996 C407.986,605.996 400.822,598.832 400.822,589.996 L400.822,555.058 C382.22,548.445 368.822,530.863 368.822,509.995 C368.822,483.483 390.31,461.995 416.822,461.995 C443.334,461.995 464.822,483.483 464.822,509.995 C464.822,530.863 451.424,548.445 432.822,555.059 z" fill="#000000" id="unlock-padlock"/>
  </g>
</svg>
